HIERARCHY
ROOT Hips
{
 OFFSET 0.000000 0.000000 0.000000
 CHANNELS 6 Xposition Yposition Zposition Yrotation Xrotation Zrotation
 JOINT Chest
 {
  OFFSET 0.000000 9.588913 -0.003946
  CHANNELS 3 Yrotation Xrotation Zrotation
  JOINT Chest2
  {
   OFFSET 0.000000 9.541882 0.008053
   CHANNELS 3 Yrotation Xrotation Zrotation
   JOINT Chest3
   {
    OFFSET 0.000000 9.501360 0.000000
    CHANNELS 3 Yrotation Xrotation Zrotation
    JOINT Chest4
    {
     OFFSET 0.000000 9.491660 0.000000
     CHANNELS 3 Yrotation Xrotation Zrotation
     JOINT Neck
     {
      OFFSET 0.000000 14.331917 0.000000
      CHANNELS 3 Yrotation Xrotation Zrotation
      JOINT Head
      {
       OFFSET 0.000000 8.884799 0.017034
       CHANNELS 3 Yrotation Xrotation Zrotation
       End Site
       {
        OFFSET 0.000000 16.896195 0.008993
       }
      }
     }
     JOINT RightCollar
     {
      OFFSET -2.923010 9.499495 0.000000
      CHANNELS 3 Yrotation Xrotation Zrotation
      JOINT RightShoulder
      {
       OFFSET -13.795216 0.000000 0.000000
       CHANNELS 3 Yrotation Xrotation Zrotation
       JOINT RightElbow
       {
        OFFSET -30.272209 0.000000 0.000000
        CHANNELS 3 Yrotation Xrotation Zrotation
        JOINT RightWrist
        {
         OFFSET -24.478199 0.000000 0.000000
         CHANNELS 3 Yrotation Xrotation Zrotation
         End Site
         {
          OFFSET -18.090752 0.000000 0.000000
         }
        }
       }
      }
     }
     JOINT LeftCollar
     {
      OFFSET 2.923010 9.499495 0.000000
      CHANNELS 3 Yrotation Xrotation Zrotation
      JOINT LeftShoulder
      {
       OFFSET 13.795216 0.000000 0.000000
       CHANNELS 3 Yrotation Xrotation Zrotation
       JOINT LeftElbow
       {
        OFFSET 30.272209 0.000000 0.000000
        CHANNELS 3 Yrotation Xrotation Zrotation
        JOINT LeftWrist
        {
         OFFSET 24.478199 0.000000 0.000000
         CHANNELS 3 Yrotation Xrotation Zrotation
         End Site
         {
          OFFSET 18.090752 0.000000 0.000000
         }
        }
       }
      }
     }
    }
   }
  }
 }
 JOINT RightHip
 {
  OFFSET -7.826875 0.019532 0.001973
  CHANNELS 3 Yrotation Xrotation Zrotation
  JOINT RightKnee
  {
   OFFSET 0.000000 -40.546152 -0.001885
   CHANNELS 3 Yrotation Xrotation Zrotation
   JOINT RightAnkle
   {
    OFFSET 0.000000 -39.417092 -0.003189
    CHANNELS 3 Yrotation Xrotation Zrotation
    JOINT RightToe
    {
     OFFSET 0.000000 -7.579396 17.243563
     CHANNELS 3 Yrotation Xrotation Zrotation
     End Site
     {
      OFFSET 0.000000 -1.500329 6.694466
     }
    }
   }
  }
 }
 JOINT LeftHip
 {
  OFFSET 7.826875 0.019532 0.001973
  CHANNELS 3 Yrotation Xrotation Zrotation
  JOINT LeftKnee
  {
   OFFSET 0.000000 -40.546152 -0.001885
   CHANNELS 3 Yrotation Xrotation Zrotation
   JOINT LeftAnkle
   {
    OFFSET 0.000000 -39.417092 -0.003189
    CHANNELS 3 Yrotation Xrotation Zrotation
    JOINT LeftToe
    {
     OFFSET 0.000000 -7.579396 17.243563
     CHANNELS 3 Yrotation Xrotation Zrotation
     End Site
     {
      OFFSET 0.000000 -1.500329 6.694466
     }
    }
   }
  }
 }
}
MOTION
Frames: 5
Frame Time: 0.008333
0.000000 87.345680 0.000000 0.000000 -5.767889 0.000000 0.000000 11.653876 0.000000 0.000000 -5.885988 0.000000 0.000000 -0.000000 0.000000 0.000000 -0.000000 0.000000 0.000000 12.528808 0.000000 0.000000 0.711711 0.000000 0.000000 -0.000000 0.000000 0.000000 -0.000000 0.000000 2.309063 -0.000000 0.000000 -2.309063 -0.000000 -0.000000 0.000000 -0.000000 0.000000 0.000000 0.000000 0.000000 -2.309063 0.000000 0.000000 2.309063 -0.000000 0.000000 0.000000 8.520374 0.000000 0.000000 1.905768 0.000000 -0.000000 -4.658254 0.000000 0.000000 -0.000000 0.000000 0.000000 8.520374 0.000000 0.000000 1.905768 0.000000 -0.000000 -4.658254 0.000000 0.000000 -0.000000 0.000000
14.284371 89.078090 28.182054 -162.219568 -9.541333 -0.231010 3.482062 3.659042 1.402309 1.961604 2.101888 0.801865 2.457002 2.622958 1.013717 1.961604 2.101888 0.801865 -3.725526 20.053627 0.485632 -4.097344 -4.391440 1.371857 -2.099231 -0.919521 0.322196 -12.326828 -1.934719 86.844152 9.287907 17.329749 5.044962 0.945251 -2.879459 -2.110562 -3.541913 0.240550 -1.010680 7.853945 -4.993566 -88.780436 -2.100078 -4.953983 -0.542253 0.116512 2.109541 1.345993 2.799660 11.995369 0.443494 4.935668 4.034277 0.191046 -1.095732 -6.581771 0.448555 0.025902 -0.106371 0.014207 13.436563 11.218192 2.710320 -8.080824 3.958830 0.623970 -0.756805 -6.096319 -0.831135 -0.004913 0.022250 0.002386
14.264386 89.079516 28.171011 -162.223664 -9.524766 -0.232168 3.481397 3.644009 1.391351 1.961655 2.091275 0.798986 2.457022 2.609707 1.010059 1.961656 2.091275 0.798986 -3.721111 20.047063 0.497154 -4.095168 -4.398895 1.383161 -2.095972 -0.914345 0.345950 -12.303039 -1.940198 86.840011 9.270120 17.343547 5.051456 0.937651 -2.877246 -2.110558 -3.521770 0.250295 -1.007194 7.855799 -4.974115 -88.835130 -1.804298 -4.973238 -0.373782 0.143415 2.115084 1.357493 2.777499 12.008725 0.432551 4.920050 3.993857 0.176271 -1.067497 -6.560970 0.466162 0.023984 -0.111020 0.013003 13.440907 11.256544 2.710438 -8.067219 3.872586 0.612046 -0.756246 -6.044301 -0.821441 -0.008105 0.017757 0.006711
14.240823 89.081737 28.156163 -162.229207 -9.510068 -0.235430 3.480961 3.629229 1.382901 1.961803 2.081080 0.796509 2.457167 2.596977 1.006907 1.961804 2.081080 0.796509 -3.720347 20.039211 0.507730 -4.096714 -4.407656 1.394298 -2.098766 -0.909892 0.367739 -12.269964 -1.946316 86.836692 9.242304 17.352234 5.050021 0.927492 -2.871346 -2.110080 -3.504934 0.267534 -1.001550 7.874016 -4.943383 -88.886896 -1.523171 -4.980656 -0.219210 0.164388 2.123545 1.367916 2.741913 12.024071 0.418961 4.902183 3.958515 0.163026 -1.028978 -6.542101 0.484077 0.021965 -0.116645 0.011721 13.454223 11.303294 2.713553 -8.053883 3.779101 0.604413 -0.761859 -5.991711 -0.817994 -0.009298 0.015206 0.013697
14.214310 89.084845 28.137772 -162.231138 -9.498083 -0.240383 3.478490 3.615025 1.375392 1.960686 2.071214 0.793977 2.455730 2.584661 1.003681 1.960686 2.071214 0.793977 -3.723434 20.030511 0.518741 -4.102531 -4.417183 1.406795 -2.107029 -0.905126 0.388995 -12.226059 -1.952610 86.835078 9.205982 17.353879 5.043859 0.917774 -2.859710 -2.110388 -3.493257 0.290067 -0.991956 7.909377 -4.898588 -88.934374 -1.258476 -4.969032 -0.078150 0.180315 2.137461 1.377523 2.685561 12.042462 0.399154 4.884880 3.928064 0.156337 -0.980858 -6.524598 0.497879 0.019814 -0.124065 0.011451 13.486689 11.356488 2.724424 -8.042815 3.680155 0.594519 -0.784111 -5.937348 -0.815559 -0.008955 0.012789 0.021951
